<?xml version="1.0" standalone="no"?><!DOCTYPE svg PUBLIC "-//W3C//DTD SVG 1.1//EN" "http://www.w3.org/Graphics/SVG/1.1/DTD/svg11.dtd"><svg t="1609297343902" class="icon" viewBox="0 0 1024 1024" version="1.1" xmlns="http://www.w3.org/2000/svg" p-id="8748" xmlns:xlink="http://www.w3.org/1999/xlink" width="200" height="200"><defs><style type="text/css"></style></defs><path d="M853.333333 213.333333h-389.12L426.666667 85.333333H170.666667c-46.933333 0-85.333333 38.4-85.333334 85.333334v554.666666c0 46.933333 38.4 85.333333 85.333334 85.333334h298.666666l42.666667 128h341.333333c46.933333 0 85.333333-38.4 85.333334-85.333334V298.666667c0-46.933333-38.4-85.333333-85.333334-85.333334zM305.92 622.506667c-96 0-174.506667-78.08-174.506667-174.506667s78.08-174.506667 174.506667-174.506667c44.373333 0 84.906667 15.786667 116.906667 45.653334l2.986666 2.56-52.48 50.346666-2.56-2.133333c-12.373333-11.52-33.28-25.173333-64.853333-25.173333-55.893333 0-101.546667 46.506667-101.546667 103.253333s45.653333 103.253333 101.546667 103.253333c58.453333 0 83.626667-37.12 90.453333-62.293333H302.08V422.826667h168.533333l0.426667 2.986666c1.706667 8.96 2.133333 17.066667 2.133333 26.026667 0 100.266667-68.693333 170.666667-167.253333 170.666667z m257.28-72.96c14.08 25.6 31.573333 50.346667 50.773333 72.533333l-23.04 22.613333-27.733333-95.146666z m32.853333-32.426667h-42.24l-13.226666-44.373333h170.24s-14.506667 55.893333-66.56 116.906666c-22.186667-26.453333-37.973333-52.48-48.213334-72.533333zM896 853.333333c0 23.466667-19.2 42.666667-42.666667 42.666667h-298.666666l85.333333-85.333333-34.56-118.186667 39.253333-39.253333L759.04 768l31.146667-31.146667-115.626667-114.346666c38.4-43.946667 68.266667-96 81.92-149.76H810.666667v-44.373334h-155.306667V384h-44.373333v44.373333h-83.626667L477.013333 256H853.333333c23.466667 0 42.666667 19.2 42.666667 42.666667v554.666666z" p-id="8749" fill="#e6e6e6"></path></svg>