<?xml version="1.0" standalone="no"?><!DOCTYPE svg PUBLIC "-//W3C//DTD SVG 1.1//EN" "http://www.w3.org/Graphics/SVG/1.1/DTD/svg11.dtd"><svg t="1609297304135" class="icon" viewBox="0 0 1024 1024" version="1.1" xmlns="http://www.w3.org/2000/svg" p-id="7329" xmlns:xlink="http://www.w3.org/1999/xlink" width="200" height="200"><defs><style type="text/css"></style></defs><path d="M214.152533 305.527467l-21.0432 38.341973-47.223467 1.40288c-43.485867 0.935253-47.694507 1.870507-47.694507 10.287787 0 11.687253 12.158293 17.7664 43.485867 21.507413 21.039787 2.338133 25.248427 4.676267 23.37792 10.755413-6.546773 17.298773-57.97888 83.694933-91.17696 117.36064-20.107947 20.11136-36.471467 37.40672-36.471467 39.277227 0 1.40288 5.61152 2.80576 13.093547 2.80576 15.428267 0 47.223467-14.025387 68.734293-30.859947 14.493013-11.22304 16.36352-11.22304 19.16928-4.20864 1.870507 4.676267 0 23.381333-4.20864 41.61536s-11.22304 50.967893-15.428267 72.942933c-6.546773 33.662293-22.44608 84.630187-36.939093 118.76352-3.741013 7.949653-2.338133 8.88832 15.895893 6.079147 37.874347-4.676267 64.99328-30.39232 72.942933-68.734293 6.079147-29.46048 33.665707-82.75968 53.77024-104.741547 31.330987-34.133333 92.115627-58.914133 143.080107-58.914133 15.43168 0 15.899307 0.467627 15.899307 18.23744l0 17.7664-38.8096 2.338133c-24.313173 1.87392-47.22688 6.079147-60.317013 12.161707-64.525653 28.5184-66.39616 110.813867-2.80576 149.152427 25.716053 15.899307 50.029227 22.44608 103.335253 28.521813l31.327573 3.744427 4.676267-17.7664c2.80576-9.82016 6.54336-29.928107 8.413867-44.424533 3.273387-26.18368 3.741013-27.11552 17.302187-26.651307 7.949653 0.467627 29.457067 9.82016 48.626347 20.57216 40.215893 22.913707 104.738133 48.626347 154.770773 61.248853 51.428693 13.564587 140.274347 16.837973 196.38272 7.017813 72.00768-12.62592 140.274347-50.500267 140.274347-77.6192 0-7.0144-6.079147-5.14048-38.8096 11.690667-55.17312 28.521813-97.723733 36.93568-168.79616 33.662293-42.079573-1.867093-67.331413-5.61152-98.658987-14.96064-48.626347-14.025387-109.4144-42.079573-113.152-51.899733-1.40288-3.273387 4.205227-14.025387 11.690667-22.913707 22.910293-25.71264 26.18368-73.878187 6.546773-100.058453-9.82016-13.561173-45.824-42.550613-52.834987-42.550613-5.61152 0-12.158293 16.83456-15.895893 43.485867-3.273387 20.107947-2.338133 21.97504 7.949653 26.187093 14.025387 5.14048 36.471467 30.859947 36.471467 42.079573 0 13.561173-14.0288 28.521813-26.65472 28.521813-11.690667 0-68.266667-27.58656-80.421547-39.744853-5.61152-5.147307-5.61152-11.226453-1.40288-33.201493 8.413867-39.748267 7.0144-95.853227-1.870507-108.479147-3.741013-5.61152-17.302187-15.895893-29.924693-21.97504-20.575573-10.287787-28.98944-11.690667-75.748693-11.690667-28.98944 0-70.6048 3.273387-92.57984 7.0144-21.978453 3.741013-40.21248 7.0144-40.680107 7.0144-5.61152 0 0.935253-14.964053 13.090133-28.98944 18.23744-22.44608 31.327573-25.719467 118.766933-29.46048 95.3856-4.205227 151.9616-14.493013 144.482987-26.651307-1.870507-2.338133-43.01824-4.20864-94.921387-3.741013-128.116053 0.935253-122.036907 1.40288-122.036907-8.413867 0-4.676267 3.273387-13.093547 7.482027-18.705067 8.884907-13.090133 6.079147-17.298773-21.0432-31.327573l-22.442667-11.22304L214.152533 305.527467zM378.272427 455.621973c5.61152 5.143893 9.82016 10.287787 9.82016 11.690667 0 1.870507-19.64032 7.010987-43.01824 11.219627-42.550613 7.949653-79.02208 22.913707-120.169813 48.162133l-20.57216 13.093547 2.338133-29.928107c2.338133-33.665707 5.61152-36.939093 50.029227-54.705493C291.300693 441.125547 362.37312 441.593173 378.272427 455.621973zM360.034987 619.738453c11.22304 13.564587-5.608107 86.50752-19.636907 86.50752-19.16928 0-50.496853-35.068587-50.496853-57.04704 0-9.82016 14.025387-27.118933 25.248427-31.7952C331.045547 610.85696 353.491627 612.25984 360.034987 619.738453zM844.916053 286.825813c-3.744427 6.079147-17.7664 22.910293-31.330987 37.40672-35.065173 38.8096-48.626347 35.536213-52.36736-11.690667-1.399467-14.96064-3.741013-28.521813-5.143893-30.39232-1.870507-1.870507-13.561173 0.935253-25.716053 6.079147l-21.97504 9.352533 1.40288 25.716053 1.870507 26.18368-22.442667 3.273387c-12.161707 1.40288-29.928107 2.80576-40.21248 2.80576-19.636907 0-27.58656 9.352533-17.7664 21.039787 4.672853 5.61152 17.7664 7.0144 57.97888 7.0144 28.5184 0 55.17312 2.341547 58.914133 4.676267 13.561173 8.41728-1.870507 20.57216-45.824 35.068587-23.37792 7.482027-44.417707 15.895893-46.75584 18.701653-2.338133 2.338133-12.158293 48.162133-21.97504 101.46816-14.493013 79.018667-16.36352 98.658987-11.690667 104.270507 7.953067 9.34912 73.8816 29.924693 117.364053 36.00384 51.43552 7.0144 128.116053-2.341547 137.936213-17.298773 3.741013-5.61152 13.093547-45.824 21.039787-89.306453 21.510827-118.76352 21.510827-110.349653 4.20864-129.989973-20.575573-22.910293-29.928107-27.58656-65.46432-30.39232-23.381333-2.338133-30.859947-4.676267-31.791787-10.755413-2.80576-14.025387 19.16928-22.442667 78.086827-29.457067 60.78464-7.482027 91.644587-16.831147 87.906987-26.651307-1.406293-4.676267-13.093547-5.61152-44.424533-4.20864-36.93568 1.40288-43.482453 0.467627-45.824-6.546773-1.870507-5.143893 1.870507-13.090133 12.161707-23.37792l15.428267-16.366933-26.65472-11.687253c-14.493013-6.546773-27.11552-11.690667-28.054187-11.690667C852.865707 276.0704 849.128107 280.746667 844.916053 286.825813L844.916053 286.825813zM803.76832 440.190293c43.953493 9.352533 49.565013 36.939093 7.482027 36.939093-11.219627 0-39.277227 5.143893-62.655147 11.22304-23.37792 6.079147-43.482453 9.82016-44.885333 8.41728-6.075733-6.079147-1.40288-29.457067 7.949653-38.341973 5.61152-5.143893 11.22304-9.352533 12.622507-9.352533 1.406293-0.467627 13.561173-3.273387 26.187093-7.0144C779.922773 434.11456 776.178347 434.11456 803.76832 440.190293zM836.9664 526.6944c12.161707 12.158293-4.205227 21.039787-48.626347 26.187093-21.97504 2.338133-51.903147 8.413867-66.39616 13.093547-33.19808 11.687253-34.60096 11.687253-34.60096 0 0-15.899307 24.313173-37.87776 49.093973-44.888747C764.95872 513.133227 826.678613 516.406613 836.9664 526.6944zM822.00576 610.389333c1.399467 19.16928-3.741013 25.716053-25.248427 30.859947-28.98944 6.546773-118.766933-3.7376-118.766933-14.025387 0-6.075733 15.43168-18.23744 32.730453-25.716053 11.69408-5.143893 29.46048-7.0144 63.122773-6.079147l46.759253 0.935253L822.00576 610.389333zM542.859947 391.563947c-2.80576 14.493013-5.143893 28.98944-5.143893 32.262827s15.43168 16.831147 34.133333 29.924693l33.662293 23.845547 1.406293-14.96064c3.741013-33.665707-12.62592-64.525653-45.35296-87.906987l-13.093547-9.34912L542.859947 391.563947z" p-id="7330" fill="#e6e6e6"></path></svg>